<svg xmlns="http://www.w3.org/2000/svg" width="32" height="32" viewBox="0 0 32 32">
  <!-- Road tile -->
  <rect width="32" height="32" fill="#4a4a4a"/>
  <!-- Subtle asphalt speckle texture -->
  <circle cx="4" cy="5" r="0.8" fill="#555"/>
  <circle cx="12" cy="3" r="0.6" fill="#3f3f3f"/>
  <circle cx="22" cy="6" r="0.7" fill="#555"/>
  <circle cx="28" cy="2" r="0.5" fill="#3f3f3f"/>
  <circle cx="7" cy="12" r="0.6" fill="#555"/>
  <circle cx="16" cy="10" r="0.8" fill="#3f3f3f"/>
  <circle cx="25" cy="14" r="0.5" fill="#555"/>
  <circle cx="3" cy="18" r="0.7" fill="#3f3f3f"/>
  <circle cx="10" cy="22" r="0.6" fill="#555"/>
  <circle cx="19" cy="19" r="0.5" fill="#3f3f3f"/>
  <circle cx="27" cy="24" r="0.8" fill="#555"/>
  <circle cx="5" cy="28" r="0.5" fill="#3f3f3f"/>
  <circle cx="14" cy="26" r="0.7" fill="#555"/>
  <circle cx="23" cy="30" r="0.6" fill="#3f3f3f"/>
  <circle cx="30" cy="16" r="0.5" fill="#555"/>
  <circle cx="2" cy="9" r="0.4" fill="#555"/>
  <circle cx="18" cy="15" r="0.4" fill="#3f3f3f"/>
  <!-- Additional texture -->
  <circle cx="8" cy="7" r="0.5" fill="#525252"/>
  <circle cx="15" cy="5" r="0.4" fill="#444"/>
  <circle cx="26" cy="9" r="0.6" fill="#525252"/>
  <circle cx="1" cy="14" r="0.4" fill="#444"/>
  <circle cx="11" cy="16" r="0.5" fill="#525252"/>
  <circle cx="21" cy="12" r="0.4" fill="#444"/>
  <circle cx="29" cy="20" r="0.5" fill="#525252"/>
  <circle cx="6" cy="24" r="0.4" fill="#444"/>
  <circle cx="17" cy="28" r="0.6" fill="#525252"/>
  <circle cx="24" cy="4" r="0.4" fill="#444"/>
  <circle cx="9" cy="1" r="0.5" fill="#525252"/>
  <circle cx="31" cy="28" r="0.4" fill="#444"/>
  <circle cx="13" cy="20" r="0.5" fill="#525252"/>
  <circle cx="4" cy="31" r="0.4" fill="#444"/>
  <circle cx="20" cy="25" r="0.6" fill="#525252"/>
  <circle cx="28" cy="11" r="0.4" fill="#444"/>
  <circle cx="1" cy="26" r="0.5" fill="#525252"/>
  <circle cx="22" cy="17" r="0.4" fill="#444"/>
  <circle cx="8" cy="19" r="0.5" fill="#525252"/>
  <circle cx="30" cy="6" r="0.4" fill="#444"/>
</svg>
