<svg xmlns="http://www.w3.org/2000/svg" width="128" height="128" viewBox="0 0 128 128">
  <!-- Chungu (Pixel Girl) Sprite Sheet - 4x4 grid of 32x32 sprites -->
  <!-- Row 0: Down (facing camera) -->
  <g id="down">
    <!-- Frame 1 - Standing -->
    <g transform="translate(0,0)">
      <!-- Hair -->
      <ellipse cx="16" cy="8" rx="10" ry="8" fill="#2C1810"/>
      <!-- Face -->
      <ellipse cx="16" cy="10" rx="7" ry="6" fill="#FFE4C4"/>
      <!-- Eyes -->
      <circle cx="13" cy="9" r="1.5" fill="#000"/>
      <circle cx="19" cy="9" r="1.5" fill="#000"/>
      <!-- Blush -->
      <ellipse cx="11" cy="11" rx="1.5" ry="0.8" fill="#FFB6C1"/>
      <ellipse cx="21" cy="11" rx="1.5" ry="0.8" fill="#FFB6C1"/>
      <!-- Hair bangs -->
      <path d="M8 6 Q16 4 24 6 L22 8 Q16 7 10 8 Z" fill="#2C1810"/>
      <!-- Dress -->
      <path d="M10 16 L22 16 L24 28 L8 28 Z" fill="#FF69B4"/>
      <!-- Legs -->
      <rect x="11" y="26" width="3" height="4" fill="#FFE4C4"/>
      <rect x="18" y="26" width="3" height="4" fill="#FFE4C4"/>
    </g>
    <!-- Frame 2 -->
    <g transform="translate(32,0)">
      <ellipse cx="16" cy="8" rx="10" ry="8" fill="#2C1810"/>
      <ellipse cx="16" cy="10" rx="7" ry="6" fill="#FFE4C4"/>
      <circle cx="13" cy="9" r="1.5" fill="#000"/>
      <circle cx="19" cy="9" r="1.5" fill="#000"/>
      <ellipse cx="11" cy="11" rx="1.5" ry="0.8" fill="#FFB6C1"/>
      <ellipse cx="21" cy="11" rx="1.5" ry="0.8" fill="#FFB6C1"/>
      <path d="M8 6 Q16 4 24 6 L22 8 Q16 7 10 8 Z" fill="#2C1810"/>
      <path d="M10 16 L22 16 L24 28 L8 28 Z" fill="#FF69B4"/>
      <rect x="9" y="26" width="3" height="4" fill="#FFE4C4"/>
      <rect x="18" y="26" width="3" height="4" fill="#FFE4C4"/>
    </g>
    <!-- Frame 3 -->
    <g transform="translate(64,0)">
      <ellipse cx="16" cy="8" rx="10" ry="8" fill="#2C1810"/>
      <ellipse cx="16" cy="10" rx="7" ry="6" fill="#FFE4C4"/>
      <circle cx="13" cy="9" r="1.5" fill="#000"/>
      <circle cx="19" cy="9" r="1.5" fill="#000"/>
      <ellipse cx="11" cy="11" rx="1.5" ry="0.8" fill="#FFB6C1"/>
      <ellipse cx="21" cy="11" rx="1.5" ry="0.8" fill="#FFB6C1"/>
      <path d="M8 6 Q16 4 24 6 L22 8 Q16 7 10 8 Z" fill="#2C1810"/>
      <path d="M10 16 L22 16 L24 28 L8 28 Z" fill="#FF69B4"/>
      <rect x="11" y="26" width="3" height="4" fill="#FFE4C4"/>
      <rect x="18" y="26" width="3" height="4" fill="#FFE4C4"/>
    </g>
    <!-- Frame 4 -->
    <g transform="translate(96,0)">
      <ellipse cx="16" cy="8" rx="10" ry="8" fill="#2C1810"/>
      <ellipse cx="16" cy="10" rx="7" ry="6" fill="#FFE4C4"/>
      <circle cx="13" cy="9" r="1.5" fill="#000"/>
      <circle cx="19" cy="9" r="1.5" fill="#000"/>
      <ellipse cx="11" cy="11" rx="1.5" ry="0.8" fill="#FFB6C1"/>
      <ellipse cx="21" cy="11" rx="1.5" ry="0.8" fill="#FFB6C1"/>
      <path d="M8 6 Q16 4 24 6 L22 8 Q16 7 10 8 Z" fill="#2C1810"/>
      <path d="M10 16 L22 16 L24 28 L8 28 Z" fill="#FF69B4"/>
      <rect x="11" y="26" width="3" height="4" fill="#FFE4C4"/>
      <rect x="20" y="26" width="3" height="4" fill="#FFE4C4"/>
    </g>
  </g>
  
  <!-- Row 1: Left -->
  <g id="left">
    <g transform="translate(0,32)">
      <ellipse cx="16" cy="8" rx="9" ry="8" fill="#2C1810"/>
      <ellipse cx="14" cy="10" rx="6" ry="6" fill="#FFE4C4"/>
      <circle cx="12" cy="9" r="1.5" fill="#000"/>
      <ellipse cx="10" cy="11" rx="1.5" ry="0.8" fill="#FFB6C1"/>
      <path d="M10 16 L20 16 L22 28 L8 28 Z" fill="#FF69B4"/>
      <rect x="11" y="26" width="3" height="4" fill="#FFE4C4"/>
      <rect x="16" y="26" width="3" height="4" fill="#FFE4C4"/>
    </g>
    <g transform="translate(32,32)">
      <ellipse cx="16" cy="8" rx="9" ry="8" fill="#2C1810"/>
      <ellipse cx="14" cy="10" rx="6" ry="6" fill="#FFE4C4"/>
      <circle cx="12" cy="9" r="1.5" fill="#000"/>
      <ellipse cx="10" cy="11" rx="1.5" ry="0.8" fill="#FFB6C1"/>
      <path d="M10 16 L20 16 L22 28 L8 28 Z" fill="#FF69B4"/>
      <rect x="9" y="26" width="3" height="4" fill="#FFE4C4"/>
      <rect x="16" y="26" width="3" height="4" fill="#FFE4C4"/>
    </g>
    <g transform="translate(64,32)">
      <ellipse cx="16" cy="8" rx="9" ry="8" fill="#2C1810"/>
      <ellipse cx="14" cy="10" rx="6" ry="6" fill="#FFE4C4"/>
      <circle cx="12" cy="9" r="1.5" fill="#000"/>
      <ellipse cx="10" cy="11" rx="1.5" ry="0.8" fill="#FFB6C1"/>
      <path d="M10 16 L20 16 L22 28 L8 28 Z" fill="#FF69B4"/>
      <rect x="11" y="26" width="3" height="4" fill="#FFE4C4"/>
      <rect x="16" y="26" width="3" height="4" fill="#FFE4C4"/>
    </g>
    <g transform="translate(96,32)">
      <ellipse cx="16" cy="8" rx="9" ry="8" fill="#2C1810"/>
      <ellipse cx="14" cy="10" rx="6" ry="6" fill="#FFE4C4"/>
      <circle cx="12" cy="9" r="1.5" fill="#000"/>
      <ellipse cx="10" cy="11" rx="1.5" ry="0.8" fill="#FFB6C1"/>
      <path d="M10 16 L20 16 L22 28 L8 28 Z" fill="#FF69B4"/>
      <rect x="13" y="26" width="3" height="4" fill="#FFE4C4"/>
      <rect x="18" y="26" width="3" height="4" fill="#FFE4C4"/>
    </g>
  </g>
  
  <!-- Row 2: Right -->
  <g id="right">
    <g transform="translate(0,64)">
      <ellipse cx="16" cy="8" rx="9" ry="8" fill="#2C1810"/>
      <ellipse cx="18" cy="10" rx="6" ry="6" fill="#FFE4C4"/>
      <circle cx="20" cy="9" r="1.5" fill="#000"/>
      <ellipse cx="22" cy="11" rx="1.5" ry="0.8" fill="#FFB6C1"/>
      <path d="M12 16 L22 16 L24 28 L10 28 Z" fill="#FF69B4"/>
      <rect x="13" y="26" width="3" height="4" fill="#FFE4C4"/>
      <rect x="18" y="26" width="3" height="4" fill="#FFE4C4"/>
    </g>
    <g transform="translate(32,64)">
      <ellipse cx="16" cy="8" rx="9" ry="8" fill="#2C1810"/>
      <ellipse cx="18" cy="10" rx="6" ry="6" fill="#FFE4C4"/>
      <circle cx="20" cy="9" r="1.5" fill="#000"/>
      <ellipse cx="22" cy="11" rx="1.5" ry="0.8" fill="#FFB6C1"/>
      <path d="M12 16 L22 16 L24 28 L10 28 Z" fill="#FF69B4"/>
      <rect x="11" y="26" width="3" height="4" fill="#FFE4C4"/>
      <rect x="18" y="26" width="3" height="4" fill="#FFE4C4"/>
    </g>
    <g transform="translate(64,64)">
      <ellipse cx="16" cy="8" rx="9" ry="8" fill="#2C1810"/>
      <ellipse cx="18" cy="10" rx="6" ry="6" fill="#FFE4C4"/>
      <circle cx="20" cy="9" r="1.5" fill="#000"/>
      <ellipse cx="22" cy="11" rx="1.5" ry="0.8" fill="#FFB6C1"/>
      <path d="M12 16 L22 16 L24 28 L10 28 Z" fill="#FF69B4"/>
      <rect x="13" y="26" width="3" height="4" fill="#FFE4C4"/>
      <rect x="18" y="26" width="3" height="4" fill="#FFE4C4"/>
    </g>
    <g transform="translate(96,64)">
      <ellipse cx="16" cy="8" rx="9" ry="8" fill="#2C1810"/>
      <ellipse cx="18" cy="10" rx="6" ry="6" fill="#FFE4C4"/>
      <circle cx="20" cy="9" r="1.5" fill="#000"/>
      <ellipse cx="22" cy="11" rx="1.5" ry="0.8" fill="#FFB6C1"/>
      <path d="M12 16 L22 16 L24 28 L10 28 Z" fill="#FF69B4"/>
      <rect x="13" y="26" width="3" height="4" fill="#FFE4C4"/>
      <rect x="20" y="26" width="3" height="4" fill="#FFE4C4"/>
    </g>
  </g>
  
  <!-- Row 3: Up (back view) -->
  <g id="up">
    <g transform="translate(0,96)">
      <ellipse cx="16" cy="8" rx="10" ry="8" fill="#2C1810"/>
      <path d="M10 16 L22 16 L24 28 L8 28 Z" fill="#FF69B4"/>
      <rect x="11" y="26" width="3" height="4" fill="#FFE4C4"/>
      <rect x="18" y="26" width="3" height="4" fill="#FFE4C4"/>
    </g>
    <g transform="translate(32,96)">
      <ellipse cx="16" cy="8" rx="10" ry="8" fill="#2C1810"/>
      <path d="M10 16 L22 16 L24 28 L8 28 Z" fill="#FF69B4"/>
      <rect x="9" y="26" width="3" height="4" fill="#FFE4C4"/>
      <rect x="18" y="26" width="3" height="4" fill="#FFE4C4"/>
    </g>
    <g transform="translate(64,96)">
      <ellipse cx="16" cy="8" rx="10" ry="8" fill="#2C1810"/>
      <path d="M10 16 L22 16 L24 28 L8 28 Z" fill="#FF69B4"/>
      <rect x="11" y="26" width="3" height="4" fill="#FFE4C4"/>
      <rect x="18" y="26" width="3" height="4" fill="#FFE4C4"/>
    </g>
    <g transform="translate(96,96)">
      <ellipse cx="16" cy="8" rx="10" ry="8" fill="#2C1810"/>
      <path d="M10 16 L22 16 L24 28 L8 28 Z" fill="#FF69B4"/>
      <rect x="11" y="26" width="3" height="4" fill="#FFE4C4"/>
      <rect x="20" y="26" width="3" height="4" fill="#FFE4C4"/>
    </g>
  </g>
</svg>
